# xmcd CD database file
#
# Track frame offsets:
#	150
#	11910
#	28951
#	39776
#	59092
#	69527
#	82324
#	97618
#	107511
#	118881
#	134518
#	144392
#	164982
#	174440
#	193459
#
# Disc length: 2830 seconds
#
# Revision: 0
# Processed by: cddbd v1.5.1PL0 Copyright (c) Steve Scherf et al.
# Submitted via: CDex 1.50
#
DISCID=e20b0c0f
DTITLE=Hot Club Zagreb - Hot Club Zagreb
DYEAR=2003
DGENRE=Jazz
TTITLE0=Mr. Sandman
TTITLE1=Dark Eyes
TTITLE2=Django's Tiger
TTITLE3=Tears
TTITLE4=Sweet Georgia Brown
TTITLE5=Limehouse Blues
TTITLE6=September Song
TTITLE7=Sheik of Araby
TTITLE8=Dinah
TTITLE9=Swing 41
TTITLE10=Swinging with Django
TTITLE11=Out of Nowhere
TTITLE12=Swing Guitar
TTITLE13=Kako je poèeo rat na mom otoku
TTITLE14=Nuages
EXTD=YEAR: 2003
EXTT0=
EXTT1=
EXTT2=
EXTT3=
EXTT4=
EXTT5=
EXTT6=
EXTT7=
EXTT8=
EXTT9=
EXTT10=
EXTT11=
EXTT12=
EXTT13=
EXTT14=
PLAYORDER=
